# xmcd
#
# Track frame offsets:
#	150
#	18825
#	38925
#	61313
#	84413
#	109763
#	135188
#	161213
#	184763
#	203813
#	226538
#	247088
#
# Disc length: 3598 seconds
#
# Revision: 1
# Processed by: cddbd v1.5.2PL0 Copyright (c) Steve Scherf et al.
# Submitted via: EZCDAudioConverter 8.0.2.1
#
DISCID=920e0c0c
DTITLE=K. J. Yesudas - Vishada Ganangal
DYEAR=1983
DGENRE=Light Music
TTITLE0=Kadalin Agadhathayil
TTITLE1=Prathisrutha Priyavadhu
TTITLE2=Iniyare Thirayunnu
TTITLE3=Aarum Kelkkatha
TTITLE4=Thiruvathirappoove
TTITLE5=Ente Prarthana
TTITLE6=Aa Nalla Nalinte
TTITLE7=Swapnangal Oruvazhiye
TTITLE8=Karthika Tharamurangi
TTITLE9=Prayathe Ente
TTITLE10=Ettum Pottum Thiriyatha
TTITLE11=Orikkaleeswaran
EXTD=
EXTT0=
EXTT1=
EXTT2=
EXTT3=
EXTT4=
EXTT5=
EXTT6=
EXTT7=
EXTT8=
EXTT9=
EXTT10=
EXTT11=
PLAYORDER=
